<?xml version="1.0" encoding="UTF-8" standalone="no"?>
<!-- Created with Inkscape (http://www.inkscape.org/) -->

<svg
   xmlns:dc="http://purl.org/dc/elements/1.1/"
   xmlns:cc="http://creativecommons.org/ns#"
   xmlns:rdf="http://www.w3.org/1999/02/22-rdf-syntax-ns#"
   xmlns:svg="http://www.w3.org/2000/svg"
   xmlns="http://www.w3.org/2000/svg"
   xmlns:sodipodi="http://sodipodi.sourceforge.net/DTD/sodipodi-0.dtd"
   xmlns:inkscape="http://www.inkscape.org/namespaces/inkscape"
   width="32"
   height="32"
   viewBox="0 0 32.000001 32.000001"
   id="svg4709"
   version="1.1"
   inkscape:version="0.91 r13725"
   inkscape:export-filename="/home/hbarrett/g5343.png"
   inkscape:export-xdpi="10.64"
   inkscape:export-ydpi="10.64"
   sodipodi:docname="infoicon.svg">
  <defs
     id="defs4711" />
  <sodipodi:namedview
     id="base"
     pagecolor="#ffffff"
     bordercolor="#666666"
     borderopacity="1.0"
     inkscape:pageopacity="0.0"
     inkscape:pageshadow="2"
     inkscape:zoom="3.959798"
     inkscape:cx="-13.221232"
     inkscape:cy="-13.70505"
     inkscape:document-units="px"
     inkscape:current-layer="layer1"
     showgrid="false"
     inkscape:window-width="1855"
     inkscape:window-height="1056"
     inkscape:window-x="65"
     inkscape:window-y="24"
     inkscape:window-maximized="1"
     fit-margin-top="0"
     fit-margin-left="0"
     fit-margin-right="0"
     fit-margin-bottom="0"
     units="px" />
  <metadata
     id="metadata4714">
    <rdf:RDF>
      <cc:Work
         rdf:about="">
        <dc:format>image/svg+xml</dc:format>
        <dc:type
           rdf:resource="http://purl.org/dc/dcmitype/StillImage" />
        <dc:title></dc:title>
      </cc:Work>
    </rdf:RDF>
  </metadata>
  <g
     inkscape:label="Layer 1"
     inkscape:groupmode="layer"
     id="layer1"
     transform="translate(-230.30578,-799.14882)">
    <text
       xml:space="preserve"
       style="font-style:normal;font-variant:normal;font-weight:800;font-stretch:normal;font-size:40px;line-height:125%;font-family:Brokman;-inkscape-font-specification:'Brokman, Ultra-Bold';text-align:start;letter-spacing:0px;word-spacing:0px;writing-mode:lr-tb;text-anchor:start;fill:#000000;fill-opacity:1;stroke:none;stroke-width:1px;stroke-linecap:butt;stroke-linejoin:miter;stroke-opacity:1"
       x="380"
       y="60.933632"
       id="text5259"
       sodipodi:linespacing="125%"><tspan
         sodipodi:role="line"
         id="tspan5261"
         x="380"
         y="60.933632" /></text>
    <text
       xml:space="preserve"
       style="font-style:normal;font-variant:normal;font-weight:800;font-stretch:normal;font-size:40px;line-height:125%;font-family:Brokman;-inkscape-font-specification:'Brokman, Ultra-Bold';text-align:start;letter-spacing:0px;word-spacing:0px;writing-mode:lr-tb;text-anchor:start;fill:#000000;fill-opacity:1;stroke:none;stroke-width:1px;stroke-linecap:butt;stroke-linejoin:miter;stroke-opacity:1"
       x="519.21838"
       y="116.96093"
       id="text5289"
       sodipodi:linespacing="125%"><tspan
         sodipodi:role="line"
         id="tspan5291"
         x="519.21838"
         y="116.96093"></tspan></text>
    <text
       xml:space="preserve"
       style="font-style:normal;font-variant:normal;font-weight:800;font-stretch:normal;font-size:40px;line-height:125%;font-family:Brokman;-inkscape-font-specification:'Brokman, Ultra-Bold';text-align:start;letter-spacing:0px;word-spacing:0px;writing-mode:lr-tb;text-anchor:start;fill:#000000;fill-opacity:1;stroke:none;stroke-width:1px;stroke-linecap:butt;stroke-linejoin:miter;stroke-opacity:1"
       x="377.79706"
       y="92.717262"
       id="text5293"
       sodipodi:linespacing="125%"><tspan
         sodipodi:role="line"
         id="tspan5295"
         x="377.79706"
         y="92.717262"></tspan></text>
    <g
       id="g5343"
       inkscape:export-xdpi="35.32"
       inkscape:export-ydpi="35.32"
       transform="matrix(0.11749474,0,0,0.11749474,203.31564,733.33929)">
      <path
         inkscape:connector-curvature="0"
         id="path5334"
         d="M 366.25208,560.41837 A 135.36244,135.36244 0 0 0 230.69323,685.62946 135.36244,135.36244 0 0 0 355.52445,830.76137 135.36244,135.36244 0 0 0 500.65636,705.93166 l 0,-0.003 a 135.36244,135.36244 0 0 0 -124.83121,-145.13035 135.36244,135.36244 0 0 0 -9.57307,-0.37988 z m -0.0778,18.17851 a 117.18392,117.18392 0 0 1 8.28689,0.32902 117.18392,117.18392 0 0 1 108.06751,125.64031 l 0,0.002 A 117.18392,117.18392 0 0 1 356.8869,812.63372 117.18392,117.18392 0 0 1 248.82089,686.99341 117.18392,117.18392 0 0 1 366.17431,578.59688 Z"
         style="opacity:1;fill:#717171;fill-opacity:1;stroke:#000000;stroke-width:0;stroke-linecap:round;stroke-linejoin:round;stroke-miterlimit:4;stroke-dasharray:none;stroke-dashoffset:0;stroke-opacity:1" />
      <path
         d="m 388.18579,629.00669 a 22.574347,22.574347 0 0 1 -24.20363,20.81781 22.574347,22.574347 0 0 1 -20.81793,-24.20353 22.574347,22.574347 0 0 1 24.20344,-20.81805 22.574347,22.574347 0 0 1 20.81816,24.20334"
         sodipodi:open="true"
         sodipodi:end="0.075046714"
         sodipodi:start="0.075065738"
         sodipodi:ry="22.574347"
         sodipodi:rx="22.574347"
         sodipodi:cy="627.31372"
         sodipodi:cx="365.67502"
         sodipodi:type="arc"
         id="path5301"
         style="opacity:1;fill:#717171;fill-opacity:1;stroke:#000000;stroke-width:0;stroke-linecap:round;stroke-linejoin:round;stroke-miterlimit:4;stroke-dasharray:none;stroke-dashoffset:0;stroke-opacity:1" />
      <path
         id="rect5322"
         d="m 328.36321,667.62841 c -2.34342,0 -4.23047,1.88705 -4.23047,4.23047 l 0,27.14844 c 0,2.34343 1.88705,4.22852 4.23047,4.22852 l 15.08789,0 0,48.23632 -15.08789,0 c -2.34342,0 -4.23047,1.88509 -4.23047,4.22852 l 0,26.89648 c 0,2.34343 1.88705,4.23047 4.23047,4.23047 l 74.625,0 c 2.34343,0 4.22852,-1.88704 4.22852,-4.23047 l 0,-26.89648 c 0,-2.34343 -1.88509,-4.22852 -4.22852,-4.22852 l -15.08984,0 0,-79.61328 c 0,-2.34342 -1.88704,-4.23047 -4.23047,-4.23047 l -3.4082,0 -32.57813,0 -19.31836,0 z"
         style="opacity:1;fill:#717171;fill-opacity:1;stroke:#000000;stroke-width:0;stroke-linecap:round;stroke-linejoin:round;stroke-miterlimit:4;stroke-dasharray:none;stroke-dashoffset:0;stroke-opacity:1"
         inkscape:connector-curvature="0" />
    </g>
  </g>
</svg>
